<?xml version="1.0" encoding="UTF-8" standalone="no"?>
<!-- Created with Inkscape (http://www.inkscape.org/) -->
<svg
   xmlns:dc="http://purl.org/dc/elements/1.1/"
   xmlns:cc="http://web.resource.org/cc/"
   xmlns:rdf="http://www.w3.org/1999/02/22-rdf-syntax-ns#"
   xmlns:svg="http://www.w3.org/2000/svg"
   xmlns="http://www.w3.org/2000/svg"
   xmlns:xlink="http://www.w3.org/1999/xlink"
   xmlns:sodipodi="http://sodipodi.sourceforge.net/DTD/sodipodi-0.dtd"
   xmlns:inkscape="http://www.inkscape.org/namespaces/inkscape"
   height="256"
   width="256"
   id="svg2"
   sodipodi:version="0.32"
   inkscape:version="0.44+devel"
   sodipodi:docname="Nowy dokument.svg"
   sodipodi:docbase="/home/michal"
   inkscape:output_extension="org.inkscape.output.svg.inkscape"
   version="1.0"
   sodipodi:modified="true">
  <defs
     id="defs18">
    <linearGradient
       inkscape:collect="always"
       id="linearGradient8152">
      <stop
         style="stop-color:#000000;stop-opacity:1;"
         offset="0"
         id="stop8154" />
      <stop
         style="stop-color:#000000;stop-opacity:0;"
         offset="1"
         id="stop8156" />
    </linearGradient>
    <linearGradient
       inkscape:collect="always"
       id="linearGradient5839">
      <stop
         style="stop-color:#eeeeee;stop-opacity:1;"
         offset="0"
         id="stop5841" />

      <stop
         style="stop-color:#eeeeee;stop-opacity:0;"
         offset="1"
         id="stop5843" />
    </linearGradient>
    <linearGradient
       id="linearGradient5980">
      <stop
         style="stop-color:#220000;stop-opacity:1;"
         offset="0"
         id="stop5982" />
      <stop
         style="stop-color:#570000;stop-opacity:0;"
         offset="1"
         id="stop5984" />
    </linearGradient>
    <linearGradient
       id="linearGradient6653">
      <stop
         style="stop-color:#ffffff;stop-opacity:0;"
         offset="0"
         id="stop6655" />
      <stop
         id="stop6663"
         offset="0.77862597"
         style="stop-color:#ffffff;stop-opacity:0.49803922;" />

      <stop
         style="stop-color:#ffffff;stop-opacity:1;"
         offset="1"
         id="stop6657" />
    </linearGradient>
    <linearGradient
       id="linearGradient5738">
      <stop
         style="stop-color:#fe0505;stop-opacity:1;"
         offset="0"
         id="stop5740" />
      <stop
         style="stop-color:#8b0000;stop-opacity:1;"
         offset="1"
         id="stop5742" />
    </linearGradient>
    <filter
       inkscape:collect="always"
       id="filter6757">
      <feGaussianBlur
         inkscape:collect="always"
         stdDeviation="1.5101933"
         id="feGaussianBlur6759" />
    </filter>

    <filter
       inkscape:collect="always"
       x="-0.20980723"
       width="1.4196146"
       y="-0.50078171"
       height="2.0015635"
       id="filter6909">
      <feGaussianBlur
         inkscape:collect="always"
         stdDeviation="3.1879868"
         id="feGaussianBlur6911" />
    </filter>
    <filter
       inkscape:collect="always"
       x="-0.071718827"
       width="1.1434377"
       y="-0.11898408"
       height="1.2379682"
       id="filter6933">
      <feGaussianBlur
         inkscape:collect="always"
         stdDeviation="0.74906281"
         id="feGaussianBlur6935" />
    </filter>
    <linearGradient
       inkscape:collect="always"
       xlink:href="#linearGradient5980"
       id="linearGradient5986"
       x1="439.81122"
       y1="545.83234"
       x2="501.59375"
       y2="513.33234"
       gradientUnits="userSpaceOnUse" />
    <filter
       inkscape:collect="always"
       id="filter6020">
      <feGaussianBlur
         inkscape:collect="always"
         stdDeviation="3.2891356"
         id="feGaussianBlur6022" />

    </filter>
    <linearGradient
       inkscape:collect="always"
       xlink:href="#linearGradient5980"
       id="linearGradient6026"
       gradientUnits="userSpaceOnUse"
       x1="439.81122"
       y1="545.83234"
       x2="501.59375"
       y2="513.33234" />
    <filter
       inkscape:collect="always"
       x="-0.19698444"
       width="1.3939689"
       y="-0.22512507"
       height="1.4502501"
       id="filter5785">
      <feGaussianBlur
         inkscape:collect="always"
         stdDeviation="1.1143122"
         id="feGaussianBlur5787" />
    </filter>
    <filter
       inkscape:collect="always"
       id="filter5835">
      <feGaussianBlur
         inkscape:collect="always"
         stdDeviation="1.7846046"
         id="feGaussianBlur5837" />
    </filter>
    <filter
       inkscape:collect="always"
       x="-0.072367109"
       width="1.1447341"
       y="-0.11724163"
       height="1.2344832"
       id="filter6021">

      <feGaussianBlur
         inkscape:collect="always"
         stdDeviation="2.5861883"
         id="feGaussianBlur6023" />
    </filter>
    <filter
       inkscape:collect="always"
       x="-0.12757176"
       width="1.2551435"
       y="-0.19955003"
       height="1.3991001"
       id="filter6938">
      <feGaussianBlur
         inkscape:collect="always"
         stdDeviation="3.222517"
         id="feGaussianBlur6940" />
    </filter>
    <filter
       inkscape:collect="always"
       x="-0.11388197"
       width="1.2277639"
       y="-0.11972733"
       height="1.2394547"
       id="filter7333">
      <feGaussianBlur
         inkscape:collect="always"
         stdDeviation="1.3442502"
         id="feGaussianBlur7335" />
    </filter>
    <filter
       inkscape:collect="always"
       id="filter7450">

      <feGaussianBlur
         inkscape:collect="always"
         stdDeviation="0.65095441"
         id="feGaussianBlur7452" />
    </filter>
    <filter
       inkscape:collect="always"
       id="filter7454">
      <feGaussianBlur
         inkscape:collect="always"
         stdDeviation="0.42331528"
         id="feGaussianBlur7456" />
    </filter>
    <filter
       inkscape:collect="always"
       x="-0.16697067"
       width="1.3339413"
       y="-0.28333083"
       height="1.5666617"
       id="filter7576">
      <feGaussianBlur
         inkscape:collect="always"
         stdDeviation="1.7783362"
         id="feGaussianBlur7578" />
    </filter>
    <filter
       inkscape:collect="always"
       x="-0.30557141"
       width="1.6111428"
       y="-0.27222821"
       height="1.5444564"
       id="filter7934">

      <feGaussianBlur
         inkscape:collect="always"
         stdDeviation="26.49476"
         id="feGaussianBlur7936" />
    </filter>
    <filter
       inkscape:collect="always"
       x="-0.23950192"
       width="1.4790038"
       y="-0.21336806"
       height="1.4267361"
       id="filter7982">
      <feGaussianBlur
         inkscape:collect="always"
         stdDeviation="20.766163"
         id="feGaussianBlur7984" />
    </filter>
    <filter
       inkscape:collect="always"
       id="filter8192">
      <feGaussianBlur
         inkscape:collect="always"
         stdDeviation="2.312615"
         id="feGaussianBlur8194" />
    </filter>
    <filter
       inkscape:collect="always"
       id="filter9241">

      <feGaussianBlur
         inkscape:collect="always"
         stdDeviation="1.4137332"
         id="feGaussianBlur9243" />
    </filter>
    <linearGradient
       inkscape:collect="always"
       xlink:href="#linearGradient8152"
       id="linearGradient9430"
       gradientUnits="userSpaceOnUse"
       x1="-426.19086"
       y1="206.34373"
       x2="-477.65872"
       y2="283.80188" />
    <linearGradient
       inkscape:collect="always"
       xlink:href="#linearGradient5839"
       id="linearGradient9432"
       gradientUnits="userSpaceOnUse"
       gradientTransform="translate(1.0606602,0.7071068)"
       x1="164.27359"
       y1="427.5484"
       x2="139.36401"
       y2="424.71997" />
    <linearGradient
       inkscape:collect="always"
       xlink:href="#linearGradient5839"
       id="linearGradient9434"
       gradientUnits="userSpaceOnUse"
       gradientTransform="translate(1.767767,0.7071068)"
       x1="268.21829"
       y1="390.77884"
       x2="245.625"
       y2="412.69916" />
    <radialGradient
       inkscape:collect="always"
       xlink:href="#linearGradient5738"
       id="radialGradient9436"
       gradientUnits="userSpaceOnUse"
       gradientTransform="matrix(0.9107023,0.3628078,-0.2400312,0.6025145,132.09876,251.0821)"
       cx="-113.90744"
       cy="520.0083"
       fx="-113.90744"
       fy="520.0083"
       r="96.482132" />
    <radialGradient
       inkscape:collect="always"
       xlink:href="#linearGradient6653"
       id="radialGradient9438"
       gradientUnits="userSpaceOnUse"
       gradientTransform="matrix(1,0,0,0.951483,0,25.786819)"
       cx="-109.73992"
       cy="531.50037"
       fx="-109.73992"
       fy="531.50037"
       r="96.481316" />
    <radialGradient
       inkscape:collect="always"
       xlink:href="#linearGradient5738"
       id="radialGradient9440"
       gradientUnits="userSpaceOnUse"
       gradientTransform="matrix(0.8641208,-0.5939235,0.462672,0.6731581,-167.72149,488.16762)"
       cx="529.47388"
       cy="496.96701"
       fx="537.54675"
       fy="461.20663"
       r="86.41848" />
    <linearGradient
       inkscape:collect="always"
       xlink:href="#linearGradient5980"
       id="linearGradient9442"
       gradientUnits="userSpaceOnUse"
       x1="439.81122"
       y1="545.83234"
       x2="501.59375"
       y2="513.33234" />

    <linearGradient
       inkscape:collect="always"
       xlink:href="#linearGradient5839"
       id="linearGradient9444"
       gradientUnits="userSpaceOnUse"
       x1="605.97052"
       y1="513.27087"
       x2="528.00073"
       y2="486.40085" />
    <radialGradient
       inkscape:collect="always"
       xlink:href="#linearGradient6653"
       id="radialGradient9446"
       gradientUnits="userSpaceOnUse"
       gradientTransform="matrix(1,0,0,1.0314069,177,-24.074615)"
       cx="342.74103"
       cy="527.7384"
       fx="342.74103"
       fy="527.7384"
       r="86.430458" />
  </defs>
  <sodipodi:namedview
     id="base"
     pagecolor="#ffffff"
     bordercolor="#666666"
     borderopacity="1.0"
     inkscape:pageopacity="0.0"
     inkscape:pageshadow="2"
     inkscape:cx="128"
     inkscape:cy="128"
     inkscape:zoom="1"
     inkscape:document-units="px"
     inkscape:current-layer="layer1"
     inkscape:window-width="1274"
     inkscape:window-height="696"
     inkscape:window-x="0"
     inkscape:window-y="25"
     width="256px"
     height="256px" />
  <metadata
     id="metadata7">
    <rdf:RDF>
      <cc:Work
         rdf:about="">
        <dc:format>image/svg+xml</dc:format>

        <dc:type
           rdf:resource="http://purl.org/dc/dcmitype/StillImage" />
        <cc:license
           rdf:resource="http://creativecommons.org/licenses/by/2.5/" />
        <dc:title>cherries</dc:title>
        <dc:creator>
          <cc:Agent>
            <dc:title>Michal Pecyna</dc:title>
          </cc:Agent>
        </dc:creator>

      </cc:Work>
      <cc:License
         rdf:about="http://creativecommons.org/licenses/by/2.5/">
        <cc:permits
           rdf:resource="http://web.resource.org/cc/Reproduction" />
        <cc:permits
           rdf:resource="http://web.resource.org/cc/Distribution" />
        <cc:requires
           rdf:resource="http://web.resource.org/cc/Notice" />
        <cc:requires
           rdf:resource="http://web.resource.org/cc/Attribution" />
        <cc:permits
           rdf:resource="http://web.resource.org/cc/DerivativeWorks" />
      </cc:License>
    </rdf:RDF>

  </metadata>
  <g
     inkscape:label="Warstwa 1"
     id="layer1"
     inkscape:groupmode="layer">
    <g
       id="g9400"
       transform="matrix(0.5256297,0,0,0.5256297,325.92359,-65.928907)">
      <path
         transform="matrix(0.7592604,0,0,0.7703197,-98.527924,47.393083)"
         sodipodi:nodetypes="ccc"
         id="path7912"
         d="M -483.29478,248.8877 C -374.22314,175.00604 -404.40693,208.32077 -455.00642,265.71288 C -488.85042,288.64616 -493.75794,268.89157 -483.29478,248.8877 z "
         style="opacity:0.27626456;color:#000000;fill:url(#linearGradient9430);fill-opacity:1;fill-rule:evenodd;stroke:none;stroke-width:6.4000001;stroke-linecap:butt;stroke-linejoin:miter;marker:none;marker-start:none;marker-mid:none;marker-end:none;stroke-miterlimit:4;stroke-dashoffset:0;stroke-opacity:1;visibility:visible;display:inline;overflow:visible;filter:url(#filter8192);enable-background:accumulate" />
      <path
         style="opacity:0.58754859;color:#000000;fill:#000000;fill-opacity:1;fill-rule:evenodd;stroke:none;stroke-width:6.4000001;stroke-linecap:butt;stroke-linejoin:miter;marker:none;marker-start:none;marker-mid:none;marker-end:none;stroke-miterlimit:4;stroke-dashoffset:0;stroke-opacity:1;visibility:visible;display:inline;overflow:visible;filter:url(#filter7934);enable-background:accumulate"
         d="M -208,450.36218 C -208,478.93818 -236.82432,493.59704 -291,538.36218 C -345.17568,583.12732 -402.06856,544.34378 -374,450.36218 C -345.93144,356.38058 -336.816,362.36218 -291,362.36218 C -245.184,362.36218 -208,417.78618 -208,450.36218 z "
         id="path7910"
         sodipodi:nodetypes="czzzz" />
      <path
         sodipodi:nodetypes="czzzz"
         id="path7587"
         d="M -410,466.36218 C -410,494.93818 -438.82432,509.59704 -493,554.36218 C -547.17568,599.12732 -604.06856,560.34378 -576,466.36218 C -547.93144,372.38058 -538.816,378.36218 -493,378.36218 C -447.184,378.36218 -410,433.78618 -410,466.36218 z "
         style="opacity:0.53307352;color:#000000;fill:#000000;fill-opacity:1;fill-rule:evenodd;stroke:none;stroke-width:6.4000001;stroke-linecap:butt;stroke-linejoin:miter;marker:none;marker-start:none;marker-mid:none;marker-end:none;stroke-miterlimit:4;stroke-dashoffset:0;stroke-opacity:1;visibility:visible;display:inline;overflow:visible;filter:url(#filter7982);enable-background:accumulate" />
      <g
         transform="translate(-602,-138)"
         id="g7580">
        <path
           style="opacity:1;fill:#616f3c;fill-opacity:1;fill-rule:evenodd;stroke:none;stroke-width:6.4000001;stroke-linecap:butt;stroke-linejoin:miter;stroke-miterlimit:4;stroke-dasharray:none;stroke-opacity:1"
           d="M 161.21875,321.21875 C 163.36503,329.08899 150.32122,338.03291 160.875,341.71875 C 147.54984,390.70913 148.64054,441.78209 148.8125,492.375 L 155.1875,492.34375 C 155.01524,441.6628 154.0193,391.18001 167.03125,343.34375 C 171.07651,344.27151 174.97396,344.97787 176.0625,345.25 C 185.78896,347.68162 171.21895,351.41401 187.375,347.375 C 187.43041,347.36115 187.47623,347.35747 187.53125,347.34375 C 226.79111,379.57927 265.917,414.84003 305.0625,466 L 310.125,462.09375 C 271.76087,411.95498 233.35592,376.89207 195.09375,345.28125 C 198.4139,344.05797 199.4571,342.54901 198,338.90625 C 195.71997,333.20616 190.1279,330.02416 183.15625,328.28125 C 174.87658,326.21132 170.23213,322.72098 161.21875,321.21875 z "
           id="path6952"
           sodipodi:nodetypes="cccccssccccssc" />
        <path
           style="opacity:0.70038907;fill:url(#linearGradient9432);fill-opacity:1;fill-rule:evenodd;stroke:none;stroke-width:6.4000001;stroke-linecap:butt;stroke-linejoin:miter;stroke-miterlimit:4;stroke-dasharray:none;stroke-opacity:1;filter:url(#filter7454)"
           d="M 165.18566,338.11336 C 150.75322,387.46665 151.62256,439.90763 151.87316,491.08211 C 157.15647,490.17418 152.81525,479.80057 154.19241,475.05096 C 154.02025,429.23313 154.57967,382.55522 167.65441,338.33211 C 167.0395,338.52515 165.20391,336.85629 165.18566,338.11336 z "
           id="path6964" />

        <path
           style="fill:#373f22;fill-opacity:1;fill-rule:evenodd;stroke:none;stroke-width:1px;stroke-linecap:butt;stroke-linejoin:miter;stroke-opacity:1;filter:url(#filter7333)"
           d="M 165.78125,329.21875 C 165.73679,332.55637 162.45546,337.77107 167.375,339.75 C 170.90267,340.90962 174.5975,340.92208 177.25,343.90625 C 180.50281,346.94554 186.51842,345.3732 186.15625,340.40625 C 186.97766,335.70253 184.10435,330.88685 178.99123,330.88291 C 172.89503,329.88657 167.90766,326.05038 162.6875,323 C 163.71875,325.07292 164.75,327.14583 165.78125,329.21875 z "
           id="path6993" />
        <path
           style="opacity:1;color:#000000;fill:url(#linearGradient9434);fill-opacity:1;fill-rule:evenodd;stroke:none;stroke-width:6.4000001;stroke-linecap:butt;stroke-linejoin:miter;marker:none;marker-start:none;marker-mid:none;marker-end:none;stroke-miterlimit:4;stroke-dasharray:none;stroke-dashoffset:0;stroke-opacity:1;visibility:visible;display:inline;overflow:visible;filter:url(#filter7450);enable-background:accumulate"
           d="M 184.375,331.125 C 181.34999,331.125 185.29824,337.21855 183.15625,340.125 C 179.97427,344.44259 178.34999,348.15624 188.625,346.65625 C 189.13874,346.58125 189.70383,346.4414 190.28125,346.25 C 233.26684,381.22931 273.54953,419.72635 307.21875,463.90625 C 311.26341,461.09096 303.13737,456.71348 301.875,453.28125 C 269.90636,412.91502 232.54027,377.67005 192.71875,345.125 C 194.62855,343.96554 196.21875,342.23846 196.21875,340.125 C 196.21875,336.51451 187.39999,331.12499 184.375,331.125 z "
           id="path7175" />
        <path
           style="opacity:0.87548637;color:#000000;fill:#633918;fill-opacity:1;fill-rule:evenodd;stroke:none;stroke-width:6.4000001;stroke-linecap:butt;stroke-linejoin:miter;marker:none;marker-start:none;marker-mid:none;marker-end:none;stroke-miterlimit:4;stroke-dashoffset:0;stroke-opacity:1;visibility:visible;display:inline;overflow:visible;filter:url(#filter7576);enable-background:accumulate"
           d="M 163.21687,323.42412 C 162.77448,324.02022 163.74114,324.99528 162.4142,325.32742 C 160.8192,327.75071 159.45634,330.58574 159.22164,333.48415 C 159.53709,336.15662 163.6596,336.95622 164.85658,334.51255 C 165.68728,332.01759 164.06532,329.41304 164.47965,326.78237 C 164.44756,325.60236 163.48371,323.87797 165.25828,325.14448 C 169.46073,326.97991 173.61427,328.9442 177.73996,330.92965 C 179.25993,331.8478 181.78965,330.32307 179.77549,328.82855 C 176.66994,325.95016 172.25676,325.47201 168.3568,324.28948 C 166.6681,323.87623 164.95351,323.5453 163.21687,323.42412 z "
           id="path7306" />
      </g>
      <g
         transform="translate(-357.34571,-110.69952)"
         id="g4851">
        <path
           id="path5750"
           sodipodi:nodetypes="csssc"
           d="M -13.276957,526.50999 C -12.266797,558.64899 -53.432257,631.8247 -121.36328,622.47448 C -165.57891,616.38851 -205.20594,587.94342 -206.2161,519.43892 C -206.89847,473.1628 -157.22298,404.63088 -95.099307,460.85007 C -84.747247,470.21823 -23.378477,456.99533 -13.276957,526.50999 z "
           style="opacity:1;fill:url(#radialGradient9436);fill-opacity:1;stroke:none;stroke-width:1;stroke-miterlimit:4;stroke-opacity:1" />
        <path
           id="path5752"
           d="M -141.24554,439.7009 C -180.04683,439.46775 -206.71541,485.43561 -206.21429,519.41965 C -205.20413,587.92415 -165.55492,616.3962 -121.33929,622.48215 C -53.408267,631.83237 -12.266617,558.6524 -13.276787,526.5134 C -23.378307,456.99874 -84.737227,470.22531 -95.089287,460.85715 C -111.59089,445.92393 -127.21103,439.78523 -141.24554,439.7009 z M -126.21429,449.91965 C -126.03558,450.01374 -126.40017,450.89971 -127.49554,452.85715 C -116.68673,453.329 -106.24312,472.89612 -93.308037,486.41965 C -91.809207,477.46044 -106.80961,456.08826 -96.589287,468.29465 C -84.604267,461.15547 -75.320737,475.34148 -69.058037,478.35715 C -63.505417,480.87318 -58.216487,482.60842 -53.120537,489.3884 C -56.739807,499.6887 -35.732407,510.59927 -45.776787,521.0759 C -40.771437,536.3196 -42.091897,510.69507 -42.089287,508.91965 L -40.683037,517.7009 C -39.782297,524.47491 -36.113137,525.59148 -41.339287,548.41965 C -52.375877,555.86269 -55.442597,567.46217 -61.839287,575.48215 C -82.974947,576.70351 -86.876537,584.44486 -84.776787,587.54465 C -98.060027,582.68629 -110.48757,615.10646 -119.08929,599.23215 C -128.90348,600.45652 -131.41333,590.97663 -138.43304,587.6384 C -149.56432,586.20477 -150.26211,567.10397 -159.80804,568.4509 C -170.39444,574.9238 -167.02866,551.75687 -172.49554,544.60715 C -163.09266,531.09367 -184.79804,517.92054 -181.46429,516.0134 C -193.79967,497.80441 -179.44389,481.54498 -170.21429,485.10715 C -165.28847,480.78761 -158.27074,483.34223 -149.37054,477.0134 C -144.14052,472.23981 -127.17932,449.41156 -126.21429,449.91965 z M -31.401787,496.85715 C -23.910357,496.85713 -17.089287,510.48501 -17.089287,524.48215 C -14.994317,564.47657 -45.461217,589.84834 -47.933037,588.7634 C -50.993737,587.41994 -16.401367,550.10715 -29.901787,550.10715 C -37.393207,550.10718 -37.151787,537.4793 -37.151787,523.48215 C -37.151787,509.48501 -38.893207,496.85715 -31.401787,496.85715 z "
           style="opacity:0.43968871;fill:url(#radialGradient9438);fill-opacity:1;stroke:none;stroke-width:1;stroke-miterlimit:4;stroke-opacity:1" />
        <path
           id="path5754"
           d="M -116.05804,465.04465 C -122.49541,464.88014 -124.3048,473.70402 -119.74554,477.3884 C -109.8737,486.00455 -96.489997,490.19414 -87.339287,499.7009 C -78.453937,506.86683 -65.077667,512.5705 -54.120537,506.7634 C -47.605007,502.17836 -51.969677,492.76491 -56.339287,488.23215 C -66.551097,479.01374 -81.046147,477.46796 -93.065097,471.25545 C -100.38982,468.45562 -108.03415,464.88208 -116.05804,465.04465 z "
           style="opacity:0.72373538;fill:#ffffff;fill-opacity:1;stroke:none;stroke-width:1.09052682;stroke-miterlimit:4;stroke-opacity:1;filter:url(#filter6021)" />
        <path
           id="path5756"
           d="M -115.84375,471.0625 C -117.21219,473.22171 -112.8801,475.44203 -111.30598,476.3076 C -100.35005,482.68283 -89.483128,489.3051 -80,497.625 C -73.495922,501.67585 -63.741493,506.00506 -56.9375,500.875 C -56.774086,492.41911 -66.42541,488.10219 -73.178477,485.34736 C -85.551404,481.59988 -97.006283,475.43126 -109.46875,471.8125 C -111.56228,471.36577 -113.70385,471.02092 -115.84375,471.0625 z "
           style="opacity:0.78599219;fill:#ffffff;fill-opacity:1;stroke:none;stroke-width:1.09052682;stroke-miterlimit:4;stroke-opacity:1" />

        <path
           id="path5758"
           d="M -118.38393,445.04911 C -118.74101,446.67103 -118.49297,448.83901 -117.32143,451.76786 C -113.54534,461.20807 -98.210187,456.67784 -94.102677,464.89286 C -93.681527,465.73515 -92.819837,466.20086 -91.696427,466.45536 C -90.125157,466.20793 -88.596507,466.29139 -87.133927,466.61161 C -87.124057,466.61377 -87.112537,466.60943 -87.102677,466.61161 C -83.436807,466.36826 -79.049447,465.65942 -75.477677,465.92411 C -84.652237,464.41914 -92.079937,463.59706 -95.102677,460.86161 C -103.09791,453.62628 -110.88264,448.46704 -118.38393,445.04911 z M -72.946427,466.36161 C -70.497557,467.06854 -68.821427,468.65059 -68.821427,471.95536 C -68.821427,476.30336 -66.266597,479.04425 -62.946427,481.17411 C -62.012107,481.65298 -61.085477,482.17306 -60.165177,482.76786 C -60.131937,482.78508 -60.104717,482.8132 -60.071427,482.83036 C -60.032487,482.85576 -59.985347,482.86719 -59.946427,482.89286 C -55.436487,485.20346 -50.524707,486.99157 -48.633927,490.14286 C -44.247967,497.45278 -33.687947,495.5257 -27.290177,490.23661 C -40.037317,473.68196 -58.346377,468.90979 -72.946427,466.36161 z "
           style="opacity:0.91439688;fill:#ffffff;fill-opacity:1;stroke:none;stroke-width:1;stroke-miterlimit:4;stroke-opacity:1;filter:url(#filter6757)" />
        <path
           inkscape:transform-center-y="4.8498591"
           transform="matrix(1.229859,0.5623353,0,0.4141538,-269.27369,183.63648)"
           d="M 124.24877 478.59555 A 6.0609155 7.0710678 0 1 1  112.12694,478.59555 A 6.0609155 7.0710678 0 1 1  124.24877 478.59555 z"
           sodipodi:ry="7.0710678"
           sodipodi:rx="6.0609155"
           sodipodi:cy="478.59555"
           sodipodi:cx="118.18785"
           id="path5760"
           style="opacity:1;fill:#eeeeee;fill-opacity:1;stroke:none;stroke-width:1;stroke-miterlimit:4;stroke-dasharray:none;stroke-opacity:1;filter:url(#filter6933)"
           sodipodi:type="arc" />
        <path
           sodipodi:nodetypes="ccc"
           id="path5762"
           d="M -41.214287,522.61218 C -45.494177,532.58591 -64.138987,525.62094 -71.571427,517.96933 C -64.284557,513.26627 -40.175947,513.0997 -41.214287,522.61218 z "
           style="opacity:0.68871592;fill:#ffffff;fill-opacity:1;stroke:none;stroke-width:1;stroke-miterlimit:4;stroke-opacity:1;filter:url(#filter6909)" />
      </g>
      <g
         id="g9388">
        <g
           id="g6942"
           transform="translate(-783.65319,-129.07484)">
          <path
             sodipodi:nodetypes="csssc"
             id="path6290"
             d="M 604.79962,509.93593 C 614.61522,564.35664 569.23178,597.97109 534.44249,607.87021 C 499.6415,617.77267 439.24066,577.35556 434.38688,532.56334 C 425.7748,453.08841 471.23476,470.73532 504.74401,443.11433 C 548.34487,407.17503 604.79962,458.45588 604.79962,509.93593 z "
             style="opacity:1;fill:url(#radialGradient9440);fill-opacity:1;stroke:none;stroke-width:1;stroke-miterlimit:4;stroke-opacity:1" />
          <path
             id="path5967"
             d="M 467.0625,466.125 C 453.6627,471.01856 441.02947,481.58739 439.15162,496.50598 C 435.85923,514.00641 436.43298,532.94149 443.28125,549.5625 C 455.61596,576.20205 481.0825,595.65504 508.93755,603.62283 C 522.64462,607.38118 537.17739,604.57244 549.49252,597.90533 C 558.47221,593.68986 568.23814,587.55756 574.875,581.15625 C 552.28879,587.82954 528.851,578.02268 510.15625,565.65625 C 486.62773,549.68534 467.3113,524.14299 466.5049,494.62666 C 466.08911,485.00961 466.31976,475.26651 468,465.78125 L 467.0625,466.125 z "
             style="opacity:0.79377429;fill:url(#linearGradient9442);fill-opacity:1;stroke:none;stroke-width:1;stroke-miterlimit:4;stroke-opacity:1;filter:url(#filter6020)" />
          <path
             sodipodi:nodetypes="csss"
             id="path5789"
             d="M 581.04398,520.62341 C 588.95839,508.44275 568.80889,437.89245 526.86164,452.75182 C 494.85492,464.08986 519.49413,495.2342 532.18291,501.87152 C 552.58264,512.54233 576.64299,527.39675 581.04398,520.62341 z "
             style="opacity:0.56420228;fill:url(#linearGradient9444);fill-opacity:1;fill-rule:evenodd;stroke:none;stroke-width:1px;stroke-linecap:butt;stroke-linejoin:miter;stroke-opacity:1;filter:url(#filter5835)" />

          <path
             id="path5761"
             d="M 541.78125,453.375 C 535.25018,453.02936 525.70334,452.43952 523.28125,460.1875 C 521.40479,465.39681 524.49748,472.45279 530.71875,472.1875 C 536.79265,471.05218 544.33926,467.59414 549.3125,473.15625 C 555.71058,476.902 560.28545,485.33934 568.1875,485.5 C 575.2367,483.09406 574.20844,472.5802 569.53125,468.28125 C 562.86751,459.86608 553.14031,452.28352 541.78125,453.375 z "
             style="opacity:1;fill:#eeeeee;fill-opacity:1;stroke:none;stroke-width:1;stroke-miterlimit:4;stroke-opacity:1;filter:url(#filter6938)" />
          <path
             id="path6293"
             d="M 536.625,431.09375 C 525.8862,431.05509 514.96895,434.70173 504.75,443.125 C 471.24075,470.74599 425.76293,453.08756 434.375,532.5625 C 439.22878,577.35472 499.6365,617.77743 534.4375,607.875 C 569.22679,597.97588 614.6281,564.35823 604.8125,509.9375 C 604.8125,470.52309 571.70508,431.22004 536.625,431.09375 z M 534.5625,446.90625 C 538.16544,447.6115 541.65442,448.73856 545.1875,449.71875 C 553.77442,451.18219 563.19728,452.35603 566.96875,461.625 C 574.244,466.34711 574.25252,474.84662 577.71875,481.84375 C 586.55481,485.219 585.66246,493.72497 586,500.4375 C 591.95969,505.93916 586.12222,514.23282 586.34375,521.4375 C 589.83877,525.14146 592.57856,530.21373 587.78125,534.75 C 584.76208,539.4554 585.84896,547.07947 578.9375,548.875 C 577.97115,555.09317 573.37215,566.22731 568.40625,559.5 C 561.28222,556.1703 558.84689,564.00886 556.03125,568.03125 C 548.57816,570.29551 538.16118,574.25205 530.375,570.625 C 523.94252,566.61552 516.4224,573.55972 509.6875,569.59375 C 503.41663,564.60397 495.00986,561.69369 487.34375,558.90625 C 483.60399,550.74027 477.71707,546.00559 472.75,539.21875 C 470.60067,537.16578 466.28845,524.8638 467.3125,533.875 C 467.71469,540.04027 469.2831,546.70495 463.78125,550.96875 C 466.31643,553.96694 463.20139,558.02998 466.625,561 C 475.60977,565.98285 466.47979,566.85804 460.78125,564.5625 C 454.05305,563.23208 448.69641,553.87245 450.96875,547.21875 C 448.5866,541.52342 442.24598,534.45131 440.59375,527.0625 C 436.21403,519.92754 437.71773,515.39087 439.34375,509.3125 C 438.50324,503.78911 447.2763,505.97969 450.09375,499.9375 C 459.4288,500.79346 455.94612,489.69159 460.5,485.59375 C 467.68825,482.57106 463.13427,474.02504 470.03125,470.65625 C 477.91374,468.72324 483.73469,464.35094 489.59375,458.84375 C 498.59377,457.47587 507.8933,455.8603 516.5,452.125 C 521.59462,446.94401 529.39584,451.4117 534.5625,446.90625 z "
             style="opacity:0.43968871;fill:url(#radialGradient9446);fill-opacity:1;stroke:none;stroke-width:1;stroke-miterlimit:4;stroke-opacity:1" />
          <path
             sodipodi:nodetypes="csssc"
             id="path5757"
             d="M 569,474.11218 C 570,490.97818 561.98839,475.46587 546.75,466.86218 C 539.7852,462.92981 527.32728,472.91456 527,464.61218 C 526.69016,456.75228 530.64012,457.30576 543.75,457.36218 C 556.58385,457.41741 563.35403,467.37537 569,474.11218 z "
             style="opacity:0.82879375;fill:#ffffff;fill-opacity:1;stroke:none;stroke-width:1;stroke-miterlimit:4;stroke-opacity:1" />
          <path
             transform="translate(179.60512,-7.7781746)"
             d="M 317.49093 477.48438 A 5.6568542 4.9497476 0 1 1  306.17722,477.48438 A 5.6568542 4.9497476 0 1 1  317.49093 477.48438 z"
             sodipodi:ry="4.9497476"
             sodipodi:rx="5.6568542"
             sodipodi:cy="477.48438"
             sodipodi:cx="311.83408"
             id="path4866"
             style="opacity:0.45136186;fill:#ffffff;fill-opacity:1;stroke:none;stroke-width:5.19999981;stroke-miterlimit:4;stroke-dasharray:none;stroke-opacity:1;filter:url(#filter5785)"
             sodipodi:type="arc" />
          <path
             transform="translate(1.3678977,1.3833363)"
             d="M 491.08566 470.94363 A 1.9445436 1.5909903 0 1 1  487.19657,470.94363 A 1.9445436 1.5909903 0 1 1  491.08566 470.94363 z"
             sodipodi:ry="1.5909903"
             sodipodi:rx="1.9445436"
             sodipodi:cy="470.94363"
             sodipodi:cx="489.14111"
             id="path5847"
             style="opacity:0.56420228;fill:#ffffff;fill-opacity:1;stroke:none;stroke-width:5.19999981;stroke-miterlimit:4;stroke-dasharray:none;stroke-opacity:1"
             sodipodi:type="arc" />
        </g>
        <path
           style="fill:#ffffff;fill-opacity:1;fill-rule:evenodd;stroke:none;stroke-width:1px;stroke-linecap:butt;stroke-linejoin:miter;stroke-opacity:1;filter:url(#filter9241)"
           d="M -259.96721,306.69005 C -242.10749,311.00071 -236.14958,307.15203 -218.56605,319.6583 C -201.78142,331.59636 -197.79071,345.70191 -190.1025,357.36151 C -189.84288,359.23299 -187.58256,363.79568 -187.06919,359.47995 C -185.60856,354.93616 -186.12448,353.53605 -189.43508,349.7736 C -186.49931,350.56529 -216.79123,290.91732 -259.96721,306.69005 z "
           id="path8205"
           sodipodi:nodetypes="czcccc" />
      </g>
    </g>

  </g>
</svg>
